<svg width="852" height="445" viewBox="0 0 852 445" class="keymap" xmlns="http://www.w3.org/2000/svg" xmlns:xlink="http://www.w3.org/1999/xlink">
<style>/* inherit to force styles through use tags */
svg path {
    fill: inherit;
}

/* font and background color specifications */
svg.keymap {
    font-family: SFMono-Regular,Consolas,Liberation Mono,Menlo,monospace;
    font-size: 10px;
    font-kerning: normal;
    text-rendering: optimizeLegibility;
    fill: #24292e;
}

/* default key styling */
rect.key {
    fill: #f6f8fa;
    stroke: #c9cccf;
    stroke-width: 1;
}

/* default key side styling, only used is draw_key_sides is set */
rect.side {
    filter: brightness(90%);
}

/* color accent for combo boxes */
rect.combo, rect.combo-separate {
    fill: #cdf;
}

/* color accent for held keys */
rect.held, rect.combo.held {
    fill: #df9f9f;
}

/* color accent for ghost (optional) keys */
rect.ghost, rect.combo.ghost {
    stroke-dasharray: 4, 4;
    stroke-width: 2;
}

text {
    text-anchor: middle;
    dominant-baseline: hanging;
}

/* styling for layer labels */
text.label {
    font-weight: bold;
    text-anchor: start;
    stroke: white;
    stroke-width: 2;
    paint-order: stroke;
}

/* styling for combo tap, and key hold/shifted label text */
text.combo, text.hold, text.shifted {
    font-size: 10px;
}

/* styling for hold label text */
text.hold {
    font-size: 8px;
}

text.hold {
    text-anchor: middle;
    dominant-baseline: auto;
}

text.shifted {
    text-anchor: middle;
    dominant-baseline: hanging;
}

/* styling for hold/shifted label text in combo box */
text.combo.hold, text.combo.shifted {
    font-size: 8px;
}

/* lighter symbol for transparent keys */
text.trans {
    fill: #7b7e81;
}

/* styling for combo dendrons */
path.combo {
    stroke-width: 1;
    stroke: gray;
    fill: none;
}

/* Start Tabler Icons Cleanup */
/* cannot use height/width with glyphs */
.icon-tabler > path {
    fill: inherit;
    stroke: inherit;
    stroke-width: 2;
}
/* hide tabler's default box */
.icon-tabler > path[stroke="none"][fill="none"] {
    visibility: hidden;
}
/* End Tabler Icons Cleanup */
</style>
<g transform="translate(30, 0)" class="layer-Meow">
<text x="0" y="28" class="label" id="Meow">Meow:</text>
<g transform="translate(0, 56)">
<g transform="translate(33, 96)" class="key keypos-0">
<rect rx="6" ry="6" x="-29" y="-29" width="58" height="58" class="key"/>
<text x="0" y="0" class="key tap">join</text>
</g>
<g transform="translate(99, 54)" class="key keypos-1">
<rect rx="6" ry="6" x="-29" y="-29" width="58" height="58" class="key"/>
<text x="0" y="0" class="key tap">grab</text>
<text x="0" y="-21" class="key shifted">pop-grab</text>
</g>
<g transform="translate(165, 33)" class="key keypos-2">
<rect rx="6" ry="6" x="-29" y="-29" width="58" height="58" class="key"/>
<text x="0" y="0" class="key tap">[thing]</text>
<text x="0" y="-21" class="key shifted">&gt;thing</text>
</g>
<g transform="translate(231, 52)" class="key keypos-3">
<rect rx="6" ry="6" x="-29" y="-29" width="58" height="58" class="key"/>
<text x="0" y="0" class="key tap">&gt;thing&lt;</text>
<text x="0" y="-21" class="key shifted">thing&lt;</text>
</g>
<g transform="translate(297, 61)" class="key keypos-4">
<rect rx="6" ry="6" x="-29" y="-29" width="58" height="58" class="key"/>
<text x="0" y="0" class="key tap">visit</text>
</g>
<g transform="translate(495, 61)" class="key keypos-5">
<rect rx="6" ry="6" x="-29" y="-29" width="58" height="58" class="key"/>
<text x="0" y="0" class="key tap">search</text>
</g>
<g transform="translate(561, 52)" class="key keypos-6">
<rect rx="6" ry="6" x="-29" y="-29" width="58" height="58" class="key"/>
<text x="0" y="0" class="key tap">yank</text>
<text x="0" y="-21" class="key shifted">yank-pop</text>
</g>
<g transform="translate(627, 33)" class="key keypos-7">
<rect rx="6" ry="6" x="-29" y="-29" width="58" height="58" class="key"/>
<text x="0" y="0" class="key tap">copy</text>
</g>
<g transform="translate(693, 54)" class="key keypos-8">
<rect rx="6" ry="6" x="-29" y="-29" width="58" height="58" class="key"/>
<text x="0" y="0" class="key tap">kill</text>
</g>
<g transform="translate(759, 96)" class="key keypos-9">
<rect rx="6" ry="6" x="-29" y="-29" width="58" height="58" class="key"/>
<text x="0" y="0" class="key tap">pop-sel</text>
</g>
<g transform="translate(33, 162)" class="key keypos-10">
<rect rx="6" ry="6" x="-29" y="-29" width="58" height="58" class="key"/>
<text x="0" y="0" class="key tap">line</text>
<text x="0" y="-21" class="key shifted"><tspan style="font-size: 89%">goto-line</tspan></text>
</g>
<g transform="translate(99, 120)" class="key keypos-11">
<rect rx="6" ry="6" x="-29" y="-29" width="58" height="58" class="key"/>
<text x="0" y="0" class="key tap">block</text>
<text x="0" y="-21" class="key shifted">(→block)</text>
</g>
<g transform="translate(165, 99)" class="key keypos-12">
<rect rx="6" ry="6" x="-29" y="-29" width="58" height="58" class="key"/>
<text x="0" y="0" class="key tap">[word]</text>
<text x="0" y="-21" class="key shifted">[sym]</text>
</g>
<g transform="translate(231, 118)" class="key keypos-13">
<rect rx="6" ry="6" x="-29" y="-29" width="58" height="58" class="key"/>
<text x="0" y="0" class="key tap">insert</text>
<text x="0" y="-21" class="key shifted">↑open</text>
</g>
<g transform="translate(297, 127)" class="key keypos-14">
<rect rx="6" ry="6" x="-29" y="-29" width="58" height="58" class="key"/>
<text x="0" y="0" class="key tap">append</text>
<text x="0" y="-21" class="key shifted">open↓</text>
</g>
<g transform="translate(495, 127)" class="key keypos-15">
<rect rx="6" ry="6" x="-29" y="-29" width="58" height="58" class="key"/>
<text x="0" y="0" class="key tap">undo</text>
<text x="0" y="-21" class="key shifted"><tspan style="font-size: 73%">undo-in-sel</tspan></text>
</g>
<g transform="translate(561, 118)" class="key keypos-16">
<rect rx="6" ry="6" x="-29" y="-29" width="58" height="58" class="key"/>
<text x="0" y="0" class="key tap">←</text>
<text x="0" y="-21" class="key shifted">←ex</text>
</g>
<g transform="translate(627, 99)" class="key keypos-17">
<rect rx="6" ry="6" x="-29" y="-29" width="58" height="58" class="key"/>
<text x="0" y="0" class="key tap">↑</text>
<text x="0" y="-21" class="key shifted">↑ex</text>
</g>
<g transform="translate(693, 120)" class="key keypos-18">
<rect rx="6" ry="6" x="-29" y="-29" width="58" height="58" class="key"/>
<text x="0" y="0" class="key tap">↓</text>
<text x="0" y="-21" class="key shifted">ex↓</text>
</g>
<g transform="translate(759, 162)" class="key keypos-19">
<rect rx="6" ry="6" x="-29" y="-29" width="58" height="58" class="key"/>
<text x="0" y="0" class="key tap">→</text>
<text x="0" y="-21" class="key shifted">ex→</text>
</g>
<g transform="translate(33, 228)" class="key keypos-20">
<rect rx="6" ry="6" x="-29" y="-29" width="58" height="58" class="key"/>
<text x="0" y="0" class="key tap">reverse</text>
</g>
<g transform="translate(99, 186)" class="key keypos-21">
<rect rx="6" ry="6" x="-29" y="-29" width="58" height="58" class="key"/>
<text x="0" y="0" class="key tap">
<tspan x="0" dy="-0.0em">sync-</tspan><tspan x="0" dy="1.2em">grab</tspan>
</text>
<text x="0" y="-21" class="key shifted"><tspan style="font-size: 89%">swap-grab</tspan></text>
</g>
<g transform="translate(165, 165)" class="key keypos-22">
<rect rx="6" ry="6" x="-29" y="-29" width="58" height="58" class="key"/>
<text x="0" y="0" class="key tap">till</text>
<text x="0" y="-21" class="key shifted">find</text>
</g>
<g transform="translate(231, 184)" class="key keypos-23">
<rect rx="6" ry="6" x="-29" y="-29" width="58" height="58" class="key"/>
<text x="0" y="0" class="key tap">
<tspan x="0" dy="-0.0em">pop-to-</tspan><tspan x="0" dy="1.2em">mark</tspan>
</text>
<text x="0" y="-21" class="key shifted"><tspan style="font-size: 62%">unpop-to-mark</tspan></text>
</g>
<g transform="translate(297, 193)" class="key keypos-24">
<rect rx="6" ry="6" x="-29" y="-29" width="58" height="58" class="key"/>
<text x="0" y="0" class="key tap">repeat</text>
</g>
<g transform="translate(495, 193)" class="key keypos-25">
<rect rx="6" ry="6" x="-29" y="-29" width="58" height="58" class="key"/>
<text x="0" y="0" class="key tap">-</text>
</g>
<g transform="translate(561, 184)" class="key keypos-26">
<rect rx="6" ry="6" x="-29" y="-29" width="58" height="58" class="key"/>
<text x="0" y="0" class="key tap">word←</text>
<text x="0" y="-21" class="key shifted">sym←</text>
</g>
<g transform="translate(627, 165)" class="key keypos-27">
<rect rx="6" ry="6" x="-29" y="-29" width="58" height="58" class="key"/>
<text x="0" y="0" class="key tap">change</text>
<text x="0" y="-21" class="key shifted">replace</text>
</g>
<g transform="translate(693, 186)" class="key keypos-28">
<rect rx="6" ry="6" x="-29" y="-29" width="58" height="58" class="key"/>
<text x="0" y="0" class="key tap">delete</text>
</g>
<g transform="translate(759, 228)" class="key keypos-29">
<rect rx="6" ry="6" x="-29" y="-29" width="58" height="58" class="key"/>
<text x="0" y="0" class="key tap">→word</text>
<text x="0" y="-21" class="key shifted">→sym</text>
</g>
<g transform="translate(260, 260) rotate(15.0)" class="key keypos-30">
<rect rx="6" ry="6" x="-29" y="-29" width="58" height="58" class="key"/>
<text x="0" y="0" class="key tap">⌫</text>
</g>
<g transform="translate(329, 288) rotate(30.0)" class="key keypos-31">
<rect rx="6" ry="6" x="-29" y="-29" width="58" height="58" class="key"/>
<text x="0" y="0" class="key tap">leader</text>
</g>
<g transform="translate(463, 288) rotate(-30.0)" class="key keypos-32">
<rect rx="6" ry="6" x="-29" y="-29" width="58" height="58" class="key"/>
<text x="0" y="0" class="key tap">␣</text>
</g>
<g transform="translate(532, 260) rotate(-15.0)" class="key keypos-33">
<rect rx="6" ry="6" x="-29" y="-29" width="58" height="58" class="key"/>
<text x="0" y="0" class="key tap">⏎</text>
</g>
</g>
</g>
</svg>
